# File created by Blade
# Date/Time:  Fri Jan 16 19:32:17 2015
# Frame Rate: 120.000 fps
#------------------------------------------------------
:FULLY-SPECIFIED
:DEGREES
213
root 19.517121 35.503308 -20.182063 9.544240 13.018527 0.934564
Spine -28.336193 -15.353515 4.366249
Head 21.720805 5.979632 -1.738926
LeftShoulder 3.541345 -12.082375 -8.793409
LeftArm -113.037069 60.840211 -214.002525
LeftForeArm 43.194744 -0.000000 125.270015
LeftHand 9.358110 -0.000000 -11.605601
LeftHandThumb1 -26.253704 0.000000 33.147579
RightShoulder -14.148276 24.327324 -34.329221
RightArm -208.169267 62.699305 -229.490934
RightForeArm 44.612721 -0.000000 152.766024
RightHand 7.480142 0.000000 -31.339714
RightHandThumb1 -24.326973 -0.000000 -32.862282
LeftUpLeg -0.874213 -0.286756 1.052852
LeftLeg -6.811640 -0.000000 0.000000
LeftFoot -18.832714 24.747396 -14.624788
LeftToeBase 25.709539 -0.000000 -0.000000
RightUpLeg 1.937566 -17.523741 -1.618540
RightLeg -3.960641 -0.000000 0.000000
RightFoot -24.368785 -25.462653 21.073658
RightToeBase 23.857211 -0.000000 -0.000000
214
root 19.519022 35.503926 -20.180273 9.602043 13.055412 0.907480
Spine -28.345247 -15.333394 4.360170
Head 21.495102 5.829513 -1.513025
LeftShoulder 3.715920 -12.174516 -8.714295
LeftArm -112.907939 60.887600 -214.135035
LeftForeArm 42.120912 -0.000000 125.321805
LeftHand 10.359133 -0.000000 -11.881453
LeftHandThumb1 -26.253704 0.000000 33.147579
RightShoulder -14.323517 24.232548 -34.245593
RightArm -208.170756 62.539413 -229.546166
RightForeArm 44.160841 -0.000000 152.872240
RightHand 7.485460 -0.000000 -31.204008
RightHandThumb1 -24.326973 -0.000000 -32.862282
LeftUpLeg -0.936794 -0.312820 1.078007
LeftLeg -6.818651 -0.000000 0.000000
LeftFoot -18.837351 24.774603 -14.579219
LeftToeBase 25.738014 -0.000000 -0.000000
RightUpLeg 1.866944 -17.529983 -1.577672
RightLeg -3.936044 -0.000000 0.000000
RightFoot -24.369394 -25.455299 21.090548
RightToeBase 23.933019 -0.000000 -0.000000
215
root 19.519655 35.506034 -20.182093 9.666837 13.070814 0.883480
Spine -28.344994 -15.329347 4.326583
Head 21.294384 5.674745 -1.206472
LeftShoulder 3.826718 -12.128171 -8.658735
LeftArm -112.902000 60.954701 -214.311586
LeftForeArm 41.326311 -0.000000 125.451834
LeftHand 10.925492 -0.000000 -12.489897
LeftHandThumb1 -26.253704 0.000000 33.147579
RightShoulder -14.431857 24.133173 -34.074066
RightArm -208.128555 62.621721 -229.684282
RightForeArm 43.942893 0.000000 153.087641
RightHand 7.835693 0.000000 -31.234954
RightHandThumb1 -24.326973 -0.000000 -32.862282
LeftUpLeg -1.019719 -0.327690 1.097697
LeftLeg -6.807492 -0.000000 0.000000
LeftFoot -18.832981 24.808611 -14.579220
LeftToeBase 25.658477 -0.000000 -0.000000
RightUpLeg 1.763552 -17.496456 -1.533945
RightLeg -3.879072 -0.000000 0.000000
RightFoot -24.378635 -25.465131 21.151067
RightToeBase 23.864274 -0.000000 -0.000000
216
root 19.520378 35.507870 -20.184319 9.710595 13.085311 0.855002
Spine -28.307571 -15.296305 4.267149
Head 21.111288 5.462760 -0.882397
LeftShoulder 3.918966 -12.056607 -8.589710
LeftArm -112.926805 60.992684 -214.543232
LeftForeArm 41.194368 -0.000000 125.586378
LeftHand 11.398085 -0.000000 -12.565060
LeftHandThumb1 -26.253704 0.000000 33.147579
RightShoulder -14.575202 24.039482 -33.929164
RightArm -207.951173 62.618487 -229.647952
RightForeArm 43.723632 -0.000000 153.209286
RightHand 7.847664 -0.000000 -31.149755
RightHandThumb1 -24.326973 -0.000000 -32.862282
LeftUpLeg -1.088577 -0.354001 1.123736
LeftLeg -6.783938 -0.000000 0.000000
LeftFoot -18.864306 24.849106 -14.581552
LeftToeBase 25.698405 -0.000000 -0.000000
RightUpLeg 1.677426 -17.474205 -1.493172
RightLeg -3.815840 -0.000000 0.000000
RightFoot -24.410473 -25.450466 21.222024
RightToeBase 23.857293 -0.000000 -0.000000
217
root 19.520798 35.508088 -20.190111 9.798169 13.087992 0.825754
Spine -28.337553 -15.212310 4.208821
Head 20.981640 5.260726 -0.559275
LeftShoulder 4.018946 -11.887806 -8.513337
LeftArm -112.967848 61.114317 -214.752972
LeftForeArm 41.109710 -0.000000 125.701597
LeftHand 11.657392 -0.000000 -12.575486
LeftHandThumb1 -26.253704 0.000000 33.147579
RightShoulder -14.688566 23.903049 -33.809714
RightArm -207.619626 62.651598 -229.468031
RightForeArm 43.522823 -0.000000 153.269070
RightHand 7.762673 -0.000000 -30.721457
RightHandThumb1 -24.326973 -0.000000 -32.862282
LeftUpLeg -1.215719 -0.367977 1.146559
LeftLeg -6.738972 -0.000000 0.000000
LeftFoot -18.889064 24.901883 -14.539170
LeftToeBase 25.695964 -0.000000 -0.000000
RightUpLeg 1.538002 -17.422246 -1.438583
RightLeg -3.750436 -0.000000 0.000000
RightFoot -24.432984 -25.466900 21.226128
RightToeBase 23.885633 -0.000000 -0.000000
218
root 19.523189 35.509060 -20.192141 9.839910 13.080473 0.796820
Spine -28.306953 -15.181688 4.157703
Head 20.842957 5.108275 -0.227930
LeftShoulder 3.982930 -11.816473 -8.412120
LeftArm -112.935622 61.188005 -214.855741
LeftForeArm 40.935934 -0.000000 125.788344
LeftHand 12.017174 -0.000000 -12.206357
LeftHandThumb1 -26.253704 0.000000 33.147579
RightShoulder -14.763555 23.983122 -33.733785
RightArm -207.502273 62.847609 -229.455442
RightForeArm 43.354769 -0.000000 153.367163
RightHand 8.097935 -0.000000 -30.565789
RightHandThumb1 -24.326973 -0.000000 -32.862282
LeftUpLeg -1.279157 -0.369935 1.166698
LeftLeg -6.712742 -0.000000 0.000000
LeftFoot -18.913992 24.943573 -14.518871
LeftToeBase 25.695193 -0.000000 -0.000000
RightUpLeg 1.460118 -17.388096 -1.402654
RightLeg -3.705629 -0.000000 0.000000
RightFoot -24.455661 -25.448349 21.304053
RightToeBase 23.826354 -0.000000 -0.000000
219
root 19.524608 35.510137 -20.195647 9.899313 13.081789 0.770500
Spine -28.296184 -15.131741 4.100964
Head 20.739354 4.948575 0.074736
LeftShoulder 3.915521 -11.784039 -8.316443
LeftArm -112.819034 61.282111 -214.809724
LeftForeArm 40.487544 -0.000000 125.912958
LeftHand 12.274628 -0.000000 -12.235290
LeftHandThumb1 -26.253704 0.000000 33.147579
RightShoulder -14.838160 24.050940 -33.649763
RightArm -207.333105 63.078203 -229.476852
RightForeArm 42.966668 -0.000000 153.466575
RightHand 8.295819 -0.000000 -30.301982
RightHandThumb1 -24.326973 -0.000000 -32.862282
LeftUpLeg -1.369264 -0.383147 1.187563
LeftLeg -6.673429 -0.000000 0.000000
LeftFoot -18.941824 24.973192 -14.494991
LeftToeBase 25.720324 -0.000000 -0.000000
RightUpLeg 1.369188 -17.325081 -1.359032
RightLeg -3.671104 -0.000000 0.000000
RightFoot -24.480453 -25.483735 21.348045
RightToeBase 23.870022 -0.000000 -0.000000
220
root 19.526996 35.511889 -20.196516 9.929916 13.066357 0.751987
Spine -28.242997 -15.027630 3.999596
Head 20.652757 4.771012 0.369565
LeftShoulder 3.853751 -11.814021 -8.242052
LeftArm -112.804370 61.310882 -214.857578
LeftForeArm 40.028415 0.000000 126.000340
LeftHand 12.489473 -0.000000 -12.024545
LeftHandThumb1 -26.253704 0.000000 33.147579
RightShoulder -14.933757 24.051655 -33.544197
RightArm -207.006468 63.205276 -229.431918
RightForeArm 42.617700 0.000000 153.492908
RightHand 8.281619 0.000000 -30.331702
RightHandThumb1 -24.326973 -0.000000 -32.862282
LeftUpLeg -1.419277 -0.359659 1.195802
LeftLeg -6.642525 -0.000000 0.000000
LeftFoot -18.969336 24.996171 -14.502800
LeftToeBase 25.786474 -0.000000 -0.000000
RightUpLeg 1.327685 -17.261639 -1.336608
RightLeg -3.666218 -0.000000 0.000000
RightFoot -24.471652 -25.510473 21.382111
RightToeBase 23.834001 -0.000000 -0.000000
221
root 19.528542 35.514098 -20.197736 9.988538 13.051084 0.739779
Spine -28.232230 -14.923904 3.909539
Head 20.608837 4.625504 0.631958
LeftShoulder 3.744359 -11.879442 -8.172587
LeftArm -112.853502 61.307907 -214.954002
LeftForeArm 39.592589 -0.000000 126.129592
LeftHand 12.663880 -0.000000 -11.755632
LeftHandThumb1 -26.253704 0.000000 33.147579
RightShoulder -15.012802 24.109588 -33.473786
RightArm -206.726328 63.298213 -229.413325
RightForeArm 42.242021 0.000000 153.530381
RightHand 8.444953 -0.000000 -30.065231
RightHandThumb1 -24.326973 -0.000000 -32.862282
LeftUpLeg -1.495425 -0.359246 1.199898
LeftLeg -6.612798 -0.000000 0.000000
LeftFoot -18.985386 25.027653 -14.515321
LeftToeBase 25.707710 -0.000000 -0.000000
RightUpLeg 1.259204 -17.206570 -1.308849
RightLeg -3.667388 -0.000000 0.000000
RightFoot -24.470002 -25.537698 21.434529
RightToeBase 23.791226 -0.000000 -0.000000
222
root 19.531452 35.514518 -20.196786 10.053946 13.027046 0.731786
Spine -28.254151 -14.776800 3.807194
Head 20.619886 4.473797 0.884744
LeftShoulder 3.666565 -11.977359 -8.098495
LeftArm -112.902728 61.270408 -215.142566
LeftForeArm 39.017128 0.000000 126.188481
LeftHand 12.259826 -0.000000 -11.312071
LeftHandThumb1 -26.253704 0.000000 33.147579
RightShoulder -15.083277 24.248158 -33.482089
RightArm -206.566266 63.444075 -229.456587
RightForeArm 41.991963 0.000000 153.597349
RightHand 8.693415 -0.000000 -29.810785
RightHandThumb1 -24.326973 -0.000000 -32.862282
LeftUpLeg -1.568361 -0.320664 1.195504
LeftLeg -6.595318 -0.000000 0.000000
LeftFoot -18.997838 25.040700 -14.496218
LeftToeBase 25.739728 -0.000000 -0.000000
RightUpLeg 1.199999 -17.156856 -1.287146
RightLeg -3.692578 -0.000000 0.000000
RightFoot -24.461753 -25.563561 21.455519
RightToeBase 23.777854 -0.000000 -0.000000
223
root 19.534389 35.512666 -20.196234 10.124960 13.010823 0.717233
Spine -28.313943 -14.578288 3.696541
Head 20.724111 4.271125 1.110423
LeftShoulder 3.684365 -12.034254 -8.075411
LeftArm -112.902225 61.254956 -215.226521
LeftForeArm 38.524935 -0.000000 126.330360
LeftHand 12.434317 -0.000000 -11.156583
LeftHandThumb1 -26.253704 0.000000 33.147579
RightShoulder -15.126590 24.250205 -33.449049
RightArm -206.233531 63.377472 -229.404927
RightForeArm 41.972297 -0.000000 153.608479
RightHand 8.893920 -0.000000 -29.463523
RightHandThumb1 -24.326973 -0.000000 -32.862282
LeftUpLeg -1.648972 -0.301265 1.198102
LeftLeg -6.579678 -0.000000 0.000000
LeftFoot -19.015056 25.088885 -14.418410
LeftToeBase 25.814935 -0.000000 -0.000000
RightUpLeg 1.144085 -17.121981 -1.258378
RightLeg -3.735205 -0.000000 0.000000
RightFoot -24.439594 -25.582027 21.434408
RightToeBase 23.765790 -0.000000 -0.000000
